<svg version="1.1" id="SkhKJr_AM" xmlns="http://www.w3.org/2000/svg" xmlns:xlink="http://www.w3.org/1999/xlink" x="0px" y="0px" viewBox="0 0 595 223" style="enable-background:new 0 309.4 595.3 223;" xml:space="preserve"><style type="text/css">@-webkit-keyframes r1lnFJruRf_SyCsbPdCf_Animation {
    30% {
        -webkit-transform: scale(1, 1);
                transform: scale(1, 1)
    }
    45% {
        -webkit-transform: scale(0.9, 1);
                transform: scale(0.9, 1)
    }
    60% {
        -webkit-transform: scale(1, 1);
                transform: scale(1, 1)
    }
    75% {
        -webkit-transform: scale(0.9, 1);
                transform: scale(0.9, 1)
    }
    90% {
        -webkit-transform: scale(1, 1);
                transform: scale(1, 1)
    }
    0% {
        -webkit-transform: scale(1, 1);
                transform: scale(1, 1)
    }
    100% {
        -webkit-transform: scale(1, 1);
                transform: scale(1, 1)
    }
}
@keyframes r1lnFJruRf_SyCsbPdCf_Animation {
    30% {
        -webkit-transform: scale(1, 1);
                transform: scale(1, 1)
    }
    45% {
        -webkit-transform: scale(0.9, 1);
                transform: scale(0.9, 1)
    }
    60% {
        -webkit-transform: scale(1, 1);
                transform: scale(1, 1)
    }
    75% {
        -webkit-transform: scale(0.9, 1);
                transform: scale(0.9, 1)
    }
    90% {
        -webkit-transform: scale(1, 1);
                transform: scale(1, 1)
    }
    0% {
        -webkit-transform: scale(1, 1);
                transform: scale(1, 1)
    }
    100% {
        -webkit-transform: scale(1, 1);
                transform: scale(1, 1)
    }
}
@-webkit-keyframes r1lnFJruRf_HkSQlP_CM_Animation {
    0% {
        -webkit-transform: translate(0px, -310px);
                transform: translate(0px, -310px)
    }
    100% {
        -webkit-transform: translate(0px, -310px);
                transform: translate(0px, -310px)
    }
}
@keyframes r1lnFJruRf_HkSQlP_CM_Animation {
    0% {
        -webkit-transform: translate(0px, -310px);
                transform: translate(0px, -310px)
    }
    100% {
        -webkit-transform: translate(0px, -310px);
                transform: translate(0px, -310px)
    }
}
#SkhKJr_AM * {
    -webkit-animation-duration: 2s;
            animation-duration: 2s;
    -webkit-animation-timing-function: cubic-bezier(0, 0, 1, 1);
            animation-timing-function: cubic-bezier(0, 0, 1, 1)
}
#r1lnFJruRf_HkSQlP_CM {
    -webkit-animation-name: r1lnFJruRf_HkSQlP_CM_Animation;
            animation-name: r1lnFJruRf_HkSQlP_CM_Animation;
    -webkit-transform-origin: 50% 50%;
            transform-origin: 50% 50%;
    transform-box: fill-box;
    -webkit-transform: translate(0px, -310px);
            transform: translate(0px, -310px)
}
#r1lnFJruRf_SyCsbPdCf {
    -webkit-animation-name: r1lnFJruRf_SyCsbPdCf_Animation;
            animation-name: r1lnFJruRf_SyCsbPdCf_Animation;
    -webkit-transform-origin: 50% 50%;
            transform-origin: 50% 50%;
    transform-box: fill-box;
    -webkit-transform: scale(1, 1);
            transform: scale(1, 1)
}</style><style/>
<g id="r1lnFJruRf_HkSQlP_CM" data-animator-group="true" data-animator-type="0"><g id="r1lnFJruRf_SyCsbPdCf" data-animator-group="true" data-animator-type="2"><g id="r1lnFJruRf">
	<g id="ByW3FyruAf">
		<g id="rJznFkBd0M">
			<path id="HkX3tySOCM" d="M592.2,407.1c-6.6-25.9-23.8-43-47.2-46.9c-3.2-0.5-6.5-0.8-9.7-0.8c-23.5,0-41.1,13.9-41.9,33
				c-0.2,4.6,2.3,9,6.4,11.2c4.1,2.2,9.1,1.9,12.9-0.9c2-1.4,5.3-2.3,8.6-2.3c5.3,0,14.2,2,14.2,15c0,4.3-3.2,10.8-12,10.8
				c-5.4,0-17-2.6-33.8-20c-3.9-4-8.7-9.6-14.3-16c-27.9-32.2-70-80.8-115.2-80.8c-29.2,0-51.6,12.9-63,21.4
				c-11.5-8.5-33.8-21.4-63-21.4c-45.1,0-87.3,48.7-115.2,80.8c-5.6,6.4-10.4,12-14.3,16c-16.8,17.4-28.4,20-33.8,20
				c-3.7,0-6.8-1.2-9-3.5c-1.9-2-3-4.7-3-7.4c0-13.1,8.9-15,14.2-15c3.3,0,6.6,0.9,8.6,2.3c2.1,1.5,4.6,2.3,7.1,2.3c0,0,0,0,0,0
				c6.7,0,12.1-5.4,12.1-12.1c0-0.5,0-1-0.1-1.5c-1.3-18.6-18.7-32-41.8-32c-3.2,0-6.5,0.3-9.7,0.8c-23.4,3.9-40.6,21-47.2,46.9
				c-7.8,30.8,0.8,74.9,32.5,99.6c15,11.7,40.9,25.7,79.1,25.7c53.1,0,114.7-26.7,183.4-79.3c68.6,52.6,130.3,79.3,183.4,79.3
				c0,0,0,0,0,0c38.1,0,64-14,79-25.7C591.3,482,600,437.9,592.2,407.1z M544.7,487.6c-12,9.4-32.9,20.6-64.1,20.6c0,0,0,0,0,0
				c-49.4,0-108.6-26.9-175.9-79.9c-2.2-1.7-4.9-2.6-7.5-2.6c-2.7,0-5.3,0.9-7.5,2.6c-67.3,53-126.4,79.9-175.9,79.9
				c-31.2,0-52.1-11.2-64.1-20.6c-23.2-18.2-29.7-51.9-23.9-74.5c2.1-8.2,7.4-21.5,20.7-26.9c-7,6.5-11.8,16.1-11.8,29.3
				c0,8.9,3.6,17.7,9.8,24.2c6.8,7.1,16.2,10.9,26.5,10.9c11.3,0,29.4-4.8,51.3-27.5c4.3-4.5,9.3-10.3,15.1-16.9
				c23.5-27.1,62.8-72.5,96.8-72.5c32.3,0,54.3,21.3,54.5,21.4c4.7,4.7,12.4,4.7,17.2,0c0.2-0.2,21.8-21.4,54.5-21.4
				c34,0,73.3,45.4,96.8,72.5c5.8,6.7,10.8,12.5,15.1,16.9c21.9,22.7,40,27.5,51.3,27.5c0,0,0,0,0,0c22.7,0,36.3-17.9,36.3-35.1
				c0-13.2-4.8-22.9-11.8-29.3c13.2,5.5,18.6,18.8,20.6,26.9C574.4,435.7,567.9,469.4,544.7,487.6z"/>
		</g>
	</g>
	<g id="SJN2YyHOAz">
		<g id="rJSnFyr_0G">
			<path id="r183FJB_0G" d="M324.4,374.4c-4.1-5.3-11.8-6.2-17.1-2.1c-4.4,3.4-7,6.1-7.2,6.4c-4.6,4.9-4.4,12.6,0.5,17.2
				c2.3,2.2,5.3,3.3,8.3,3.3c3.2,0,6.4-1.3,8.8-3.8c0,0,1.6-1.7,4.5-3.9C327.6,387.3,328.5,379.7,324.4,374.4z"/>
		</g>
	</g>
	<g id="H1whtJHu0z">
		<g id="rk_3KJBdRz">
			<path id="H1Y2F1rOCz" d="M461.7,435.7c-3-3.3-6.7-7.9-11.1-13.3C428.5,395.2,395,354,358.3,354c-4,0-8,0.3-11.9,0.9
				c-6.6,1.1-11.1,7.3-10.1,13.9c1.1,6.6,7.3,11.1,13.9,10.1c2.7-0.4,5.4-0.6,8.1-0.6c25.2,0,55.4,37.2,73.5,59.4
				c4.5,5.6,8.5,10.4,11.9,14.2c2.4,2.7,5.7,4,9,4c2.9,0,5.8-1,8.1-3.1C465.8,448.4,466.2,440.7,461.7,435.7z"/>
		</g>
	</g>
</g></g></g>
<script>(function(){var a=document.querySelector('#SkhKJr_AM'),b=a.querySelectorAll('style'),c=function(d){b.forEach(function(f){var g=f.textContent;g&amp;&amp;(f.textContent=g.replace(/transform-box:[^;\r\n]*/gi,'transform-box: '+d))})};c('initial'),window.requestAnimationFrame(function(){return c('fill-box')})})();</script></svg>