<?xml version="1.0" encoding="utf-8"?>
<!-- Generator: Adobe Illustrator 19.0.0, SVG Export Plug-In . SVG Version: 6.00 Build 0)  -->
<svg version="1.1" id="Layer_1" xmlns="http://www.w3.org/2000/svg" xmlns:xlink="http://www.w3.org/1999/xlink" x="0px" y="0px"
	 viewBox="0 309.4 595.3 223" style="enable-background:new 0 309.4 595.3 223;" xml:space="preserve">
<g>
	<g>
		<g>
			<path d="M592.6,407.1c-6.6-25.9-23.8-43-47.2-46.9c-3.2-0.5-6.5-0.8-9.7-0.8c-23.5,0-41.1,13.9-41.9,33c-0.2,4.6,2.3,9,6.4,11.2
				c4.1,2.2,9.1,1.9,12.9-0.9c2-1.4,5.3-2.3,8.6-2.3c5.3,0,14.2,2,14.2,15c0,4.3-3.2,10.8-12,10.8c-5.4,0-17-2.6-33.8-20
				c-3.9-4-8.7-9.6-14.3-16c-27.9-32.2-70-80.8-115.2-80.8c-29.2,0-51.6,12.9-63,21.4c-11.5-8.5-33.8-21.4-63-21.4
				c-45.1,0-87.3,48.7-115.2,80.8c-5.6,6.4-10.4,12-14.3,16c-16.8,17.4-28.4,20-33.8,20c-3.7,0-6.8-1.2-9-3.5c-1.9-2-3-4.7-3-7.4
				c0-13.1,8.9-15,14.2-15c3.3,0,6.6,0.9,8.6,2.3c2.1,1.5,4.6,2.3,7.1,2.3c0,0,0,0,0,0c6.7,0,12.1-5.4,12.1-12.1c0-0.5,0-1-0.1-1.5
				c-1.3-18.6-18.7-32-41.8-32c-3.2,0-6.5,0.3-9.7,0.8c-23.4,3.9-40.6,21-47.2,46.9c-7.8,30.8,0.8,74.9,32.5,99.6
				c15,11.7,40.9,25.7,79.1,25.7c53.1,0,114.7-26.7,183.4-79.3c68.6,52.6,130.3,79.3,183.4,79.3c0,0,0,0,0,0c38.1,0,64-14,79-25.7
				C591.7,482,600.4,437.9,592.6,407.1z M545.1,487.6c-12,9.4-32.9,20.6-64.1,20.6c0,0,0,0,0,0c-49.4,0-108.6-26.9-175.9-79.9
				c-2.2-1.7-4.9-2.6-7.5-2.6c-2.7,0-5.3,0.9-7.5,2.6c-67.3,53-126.4,79.9-175.9,79.9c-31.2,0-52.1-11.2-64.1-20.6
				c-23.2-18.2-29.7-51.9-23.9-74.5c2.1-8.2,7.4-21.5,20.7-26.9c-7,6.5-11.8,16.1-11.8,29.3c0,8.9,3.6,17.7,9.8,24.2
				c6.8,7.1,16.2,10.9,26.5,10.9c11.3,0,29.4-4.8,51.3-27.5c4.3-4.5,9.3-10.3,15.1-16.9c23.5-27.1,62.8-72.5,96.8-72.5
				c32.3,0,54.3,21.3,54.5,21.4c4.7,4.7,12.4,4.7,17.2,0c0.2-0.2,21.8-21.4,54.5-21.4c34,0,73.3,45.4,96.8,72.5
				c5.8,6.7,10.8,12.5,15.1,16.9c21.9,22.7,40,27.5,51.3,27.5c0,0,0,0,0,0c22.7,0,36.3-17.9,36.3-35.1c0-13.2-4.8-22.9-11.8-29.3
				c13.2,5.5,18.6,18.8,20.6,26.9C574.8,435.7,568.3,469.4,545.1,487.6z"/>
		</g>
	</g>
	<g>
		<g>
			<path d="M324.8,374.4c-4.1-5.3-11.8-6.2-17.1-2.1c-4.4,3.4-7,6.1-7.2,6.4c-4.6,4.9-4.4,12.6,0.5,17.2c2.3,2.2,5.3,3.3,8.3,3.3
				c3.2,0,6.4-1.3,8.8-3.8c0,0,1.6-1.7,4.5-3.9C328,387.3,328.9,379.7,324.8,374.4z"/>
		</g>
	</g>
	<g>
		<g>
			<path d="M462.1,435.7c-3-3.3-6.7-7.9-11.1-13.3c-22.1-27.2-55.6-68.4-92.3-68.4c-4,0-8,0.3-11.9,0.9c-6.6,1.1-11.1,7.3-10.1,13.9
				c1.1,6.6,7.3,11.1,13.9,10.1c2.7-0.4,5.4-0.6,8.1-0.6c25.2,0,55.4,37.2,73.5,59.4c4.5,5.6,8.5,10.4,11.9,14.2c2.4,2.7,5.7,4,9,4
				c2.9,0,5.8-1,8.1-3.1C466.2,448.4,466.6,440.7,462.1,435.7z"/>
		</g>
	</g>
</g>
</svg>
