<?xml version="1.0" encoding="iso-8859-1"?>
<!-- Generator: Adobe Illustrator 19.0.0, SVG Export Plug-In . SVG Version: 6.00 Build 0)  -->
<svg version="1.1" id="Capa_1" xmlns="http://www.w3.org/2000/svg" xmlns:xlink="http://www.w3.org/1999/xlink" x="0px" y="0px"
	 viewBox="0 0 64 64" style="enable-background:new 0 0 64 64;" xml:space="preserve">
<g>
	<path d="M59,24v-1c0-1.654-1.346-3-3-3h-6c-1.654,0-3,1.346-3,3v1h-1.219l-1.054-4.212C44.17,17.558,42.176,16,39.877,16H24.123
		c-2.299,0-4.293,1.558-4.851,3.788L18.219,24H8H5c-2.757,0-5,2.243-5,5v6v24c0,2.757,2.243,5,5,5h54c2.757,0,5-2.243,5-5V29
		C64,26.243,61.757,24,59,24z M49,23c0-0.552,0.448-1,1-1h6c0.552,0,1,0.448,1,1v1h-8V23z M2,29c0-1.654,1.346-3,3-3h3
		c2.206,0,4,1.794,4,4s-1.794,4-4,4H2V29z M62,59c0,1.654-1.346,3-3,3H5c-1.302,0-2.402-0.839-2.816-2H8c2.757,0,5-2.243,5-5V38.414
		l0.707-0.707l-1.414-1.414l-1,1C11.105,37.48,11,37.734,11,38v17c0,1.654-1.346,3-3,3H2V36h6c3.309,0,6-2.691,6-6
		c0-1.538-0.586-2.937-1.541-4H19c0.459,0,0.858-0.312,0.97-0.758l1.242-4.97C21.547,18.935,22.744,18,24.123,18h15.754
		c1.379,0,2.576,0.935,2.911,2.272l1.242,4.97C44.142,25.688,44.541,26,45,26h3h10h1c1.654,0,3,1.346,3,3V59z"/>
	<path d="M32,26c-9.374,0-17,7.626-17,17s7.626,17,17,17s17-7.626,17-17S41.374,26,32,26z M32,58c-8.272,0-15-6.729-15-15
		s6.728-15,15-15c8.271,0,15,6.729,15,15S40.271,58,32,58z"/>
	<path d="M32,30c-7.168,0-13,5.832-13,13s5.832,13,13,13s13-5.832,13-13S39.168,30,32,30z M32,54c-6.065,0-11-4.935-11-11
		s4.935-11,11-11s11,4.935,11,11S38.065,54,32,54z"/>
	<path d="M32.89,38.56l-0.855,0.569L31.18,38.56c-1.316-0.877-3.084-0.702-4.204,0.416c-1.299,1.3-1.298,3.413,0,4.711l4.351,4.352
		c0.195,0.195,0.451,0.293,0.707,0.293s0.512-0.098,0.707-0.293l4.352-4.352c1.298-1.298,1.299-3.411,0-4.712
		C35.973,37.858,34.207,37.682,32.89,38.56z M35.679,42.272l-3.645,3.645l-3.645-3.645c-0.518-0.519-0.518-1.363,0-1.882
		c0.257-0.257,0.599-0.39,0.943-0.39c0.256,0,0.513,0.073,0.737,0.223l1.409,0.94c0.336,0.225,0.773,0.225,1.109,0l1.41-0.94
		c0.525-0.351,1.231-0.281,1.68,0.166C36.197,40.909,36.197,41.754,35.679,42.272z"/>
	<circle cx="7" cy="30" r="2"/>
	<rect x="31" y="20" width="2" height="2"/>
	<rect x="35" y="20" width="2" height="2"/>
	<rect x="27" y="20" width="2" height="2"/>
	<path d="M52,47c2.206,0,4-1.794,4-4s-1.794-4-4-4c-0.553,0-1,0.447-1,1v6C51,46.553,51.447,47,52,47z M53,41.269
		c0.598,0.346,1,0.992,1,1.731s-0.402,1.386-1,1.731V41.269z"/>
	<path d="M0.684,9.948c3.46,1.153,6.215,3.908,7.368,7.368C8.187,17.725,8.569,18,9,18s0.812-0.275,0.948-0.684
		c1.153-3.46,3.908-6.215,7.368-7.368C17.725,9.812,18,9.431,18,9s-0.275-0.812-0.684-0.948c-3.46-1.153-6.215-3.908-7.368-7.368
		C9.812,0.275,9.431,0,9,0S8.187,0.275,8.052,0.684c-1.153,3.46-3.908,6.215-7.368,7.368C0.275,8.188,0,8.569,0,9
		S0.275,9.812,0.684,9.948z M9,3.498c1.262,2.32,3.182,4.24,5.502,5.502c-2.32,1.262-4.24,3.182-5.502,5.502
		C7.738,12.182,5.818,10.262,3.498,9C5.818,7.738,7.738,5.818,9,3.498z"/>
	<path d="M57,52h-4c-1.654,0-3,1.346-3,3v2c0,1.654,1.346,3,3,3h4c1.654,0,3-1.346,3-3v-2C60,53.346,58.654,52,57,52z M58,57
		c0,0.552-0.448,1-1,1h-4c-0.552,0-1-0.448-1-1v-2c0-0.552,0.448-1,1-1h4c0.552,0,1,0.448,1,1V57z"/>
	<rect x="53" y="31" width="7" height="2"/>
</g>
<g>
</g>
<g>
</g>
<g>
</g>
<g>
</g>
<g>
</g>
<g>
</g>
<g>
</g>
<g>
</g>
<g>
</g>
<g>
</g>
<g>
</g>
<g>
</g>
<g>
</g>
<g>
</g>
<g>
</g>
</svg>
