<?xml version="1.0" encoding="iso-8859-1"?>
<!-- Generator: Adobe Illustrator 19.0.0, SVG Export Plug-In . SVG Version: 6.00 Build 0)  -->
<svg version="1.1" id="Capa_1" xmlns="http://www.w3.org/2000/svg" xmlns:xlink="http://www.w3.org/1999/xlink" x="0px" y="0px"
	 viewBox="0 0 512 512" style="enable-background:new 0 0 512 512;" xml:space="preserve">
<g>
	<g>
		<g>
			<path d="M170,194.525v-11.982c0-4.143-3.357-7.5-7.5-7.5s-7.5,3.357-7.5,7.5v11.982c0,4.143,3.357,7.5,7.5,7.5
				S170,198.668,170,194.525z"/>
			<path d="M139.482,233.96c-10.569,2.807-30.512,12.824-38.253,18.54c-3.333,2.461-4.04,7.156-1.58,10.488
				c1.471,1.992,3.74,3.047,6.04,3.047c1.548,0,3.108-0.478,4.448-1.467c6.376-4.707,24.62-13.834,33.195-16.11
				c4.003-1.063,6.387-5.17,5.324-9.174C147.593,235.281,143.486,232.898,139.482,233.96z"/>
			<path d="M363.906,261.653c-20.11,0-36.471,16.361-36.471,36.471c0,20.11,16.361,36.471,36.471,36.471
				c20.11,0,36.471-16.361,36.471-36.471C400.378,278.015,384.017,261.653,363.906,261.653z M363.906,319.596
				c-11.84,0-21.472-9.632-21.472-21.472s9.632-21.472,21.472-21.472s21.472,9.632,21.472,21.472
				C385.378,309.964,375.746,319.596,363.906,319.596z"/>
			<path d="M314.364,194.525v-11.982c0-4.143-3.357-7.5-7.5-7.5s-7.5,3.357-7.5,7.5v11.982c0,4.143,3.357,7.5,7.5,7.5
				S314.364,198.668,314.364,194.525z"/>
			<path d="M485.563,207.918h-69.407c-1.004-15.909-4.738-31.383-11.002-46.049c20.62-30.81,26.296-68.662,15.512-104.563
				c-3.409-11.348-13.216-19.577-24.985-20.964c-35.765-4.216-70.975,6.969-97.376,30.744
				c-23.946-8.553-49.944-13.055-76.748-13.055c-26.817,0-52.813,4.5-76.753,13.051c-26.4-23.772-61.602-34.953-97.372-30.74
				c-11.769,1.387-21.575,9.616-24.984,20.965c-10.781,35.89-5.111,73.731,15.496,104.537c-7.416,17.354-11.283,35.837-11.283,54.83
				c0,37.316,14.757,67.671,43.858,90.219c1.367,1.059,2.983,1.572,4.589,1.571c2.239,0,4.456-0.999,5.934-2.906
				c2.537-3.274,1.939-7.985-1.335-10.522c-25.246-19.56-38.047-45.924-38.047-78.361c0-81.41,80.701-147.643,179.897-147.643
				c26.363,0,51.856,4.64,75.119,13.432c0.451,0.224,0.918,0.399,1.397,0.526c14.77,5.71,28.618,13.107,41.19,22.07
				c0.057,0.041,0.113,0.085,0.171,0.124c3.205,2.291,6.331,4.679,9.364,7.171c18.062,14.844,31.809,32.307,40.72,51.333
				c0.124,0.338,0.279,0.665,0.451,0.984c6.3,13.744,10.09,28.289,11.154,43.246H248.99c3.91-1.903,7.452-4.577,10.378-7.934
				c2.722-3.123,2.395-7.86-0.727-10.582c-3.125-2.722-7.862-2.396-10.582,0.727c-3.377,3.875-8.253,6.098-13.377,6.098
				s-9.999-2.223-13.376-6.098c-2.723-3.122-7.46-3.447-10.582-0.727c-3.122,2.722-3.448,7.459-0.727,10.582
				c5.209,5.977,12.359,9.81,20.094,10.907c-8.474,4.409-14.278,13.269-14.278,23.464v80.114
				c-11.695-6.794-25.013-10.424-39.229-10.578c-18.089-0.18-36.411,5.479-50.748,14.809c-6.006-2.003-11.787-4.219-17.196-6.634
				c-3.782-1.688-8.217,0.009-9.905,3.792c-1.688,3.782,0.009,8.217,3.792,9.905c3.176,1.418,6.472,2.767,9.845,4.056
				c-3.229,3.421-5.995,7.089-8.172,10.959c-4.107,7.303-5.126,15.768-2.867,23.835c0.671,2.396,1.612,4.667,2.787,6.79
				c0.214,4.751,0.757,9.497,1.623,14.175c-1.107,2.516-1.733,5.29-1.733,8.21v17.009c0,4.056,1.201,7.83,3.245,11.013
				c-8.551,4.317-13.383,2.324-17.587-0.212c-8.253-4.983-11.021-13.564-15.368-31.955c-3.969-16.789-9.149-38.656-27.075-55.089
				c-0.084-0.08-0.171-0.156-0.259-0.233c-3.894-3.535-8.373-6.819-13.576-9.737c-5.226-2.932-11.275-3.651-17.041-2.028
				c-5.762,1.622-10.548,5.392-13.476,10.614c-2.928,5.222-3.648,11.272-2.026,17.036c1.621,5.764,5.391,10.551,10.613,13.479
				c2.558,1.435,4.69,3.024,6.522,4.868c0.225,0.269,0.463,0.522,0.717,0.752c5.655,6.179,8.317,15.194,11.972,30.653
				c4.718,19.951,10.588,44.779,35.825,60.017c10.061,6.073,20.729,9.152,31.708,9.152c13.407,0,26.905-4.648,40.119-13.814
				c2.257-1.565,4.513-3.282,6.801-5.143c21.048,16.821,48.033,26.364,76.434,26.364h160.696c17.295,0,31.365-14.07,31.365-31.364
				c0-4.952-1.152-9.683-3.242-13.918h81.168c11.279,0,20.456-9.177,20.456-20.456V234.355
				C511.999,219.777,500.14,207.918,485.563,207.918z M84.265,101.193c-16.015,13.259-28.919,28.427-38.427,44.893
				c-15.745-27.959-14.96-55.284-11.84-72.601c15.685,3.463,35.46,10.57,53.528,25.073C86.429,99.426,85.341,100.303,84.265,101.193
				z M100.055,89.461C79.24,71.671,56.135,63.099,37.899,58.99c2.232-4.231,6.417-7.177,11.287-7.752
				c28.934-3.403,57.437,4.627,79.869,22.187C118.893,78.004,109.192,83.363,100.055,89.461z M24.054,354.028
				c-1.609-1.211-3.35-2.358-5.258-3.428c-1.726-0.968-2.974-2.552-3.51-4.458c-0.537-1.907-0.299-3.909,0.671-5.638
				c0.969-1.728,2.552-2.975,4.457-3.512c1.904-0.536,3.907-0.299,5.638,0.673c2.521,1.414,4.822,2.935,6.947,4.541
				C30.369,347.493,27.027,351.352,24.054,354.028z M343.055,89.463c-9.137-6.097-18.842-11.452-29.006-16.033
				c22.434-17.564,50.941-25.597,79.876-22.192c4.872,0.575,9.057,3.521,11.289,7.752C386.977,63.099,363.871,71.671,343.055,89.463
				z M397.272,146.094c-9.614-16.656-22.704-31.977-38.95-45.328c-0.905-0.744-1.823-1.473-2.743-2.2
				c18.072-14.508,37.849-21.616,53.537-25.08C412.237,90.804,413.021,118.133,397.272,146.094z M117.274,348.134
				c9.427-16.76,34.438-29.247,58.416-29.247c0.244,0,0.49,0.001,0.733,0.004c14.764,0.159,28.309,4.884,39.391,13.686v40.754
				h-8.376c-0.992-1.05-1.857-2.215-2.549-3.511c-6.184-11.563-15.063-17.499-27.139-18.148
				c-14.398-0.771-27.818,6.582-31.607,11.972c-0.138,0.195-0.266,0.398-0.384,0.606c-3.429,6.03-10.313,9.254-17.14,8.018
				c-1.785-0.323-3.504-0.945-5.108-1.849c-2.357-1.325-4.304-3.171-5.728-5.381c-0.033-0.05-0.062-0.104-0.096-0.153
				c-0.831-1.322-1.479-2.77-1.911-4.315C114.598,356.361,115.13,351.944,117.274,348.134z M189.447,373.331h-31.694
				c0.219-0.334,0.45-0.658,0.657-1.002c1.689-1.539,9.532-6.173,18.531-5.679C182.397,366.944,186.228,368.938,189.447,373.331z
				 M129.774,442.986c-10.656,7.392-21.278,11.14-31.571,11.14c-8.208,0-16.268-2.353-23.955-6.994
				c-19.843-11.98-24.488-31.628-28.98-50.629c-2.782-11.769-5.338-22.551-11.035-31.464c3.208-2.912,6.703-6.803,9.785-11.806
				c9.111,12.098,12.543,26.573,15.683,39.858c4.133,17.483,7.702,32.583,22.213,41.344c7.81,4.713,20.357,9.463,39.184-3.487
				c1.098,0.183,2.217,0.301,3.366,0.301h1.947c2.355,3.025,4.864,5.914,7.504,8.671
				C132.524,441.004,131.145,442.035,129.774,442.986z M124.464,416.251L124.464,416.251c-3.009,0-5.456-2.447-5.456-5.456v-17.007
				c0-1.079,0.319-2.083,0.862-2.931c0.026-0.039,0.048-0.08,0.073-0.12c0.982-1.451,2.642-2.406,4.521-2.406h91.349v27.92H124.464z
				 M303.099,461.532h-81.542c-26.927,0-52.36-9.71-71.3-26.647c-0.066-0.063-0.133-0.124-0.201-0.184
				c-1.245-1.12-2.463-2.269-3.65-3.451h165.287c4.826,2.972,7.771,8.169,7.771,13.918
				C319.464,454.191,312.122,461.532,303.099,461.532z M382.253,461.532h-52.409c2.928-4.767,4.62-10.371,4.62-16.364
				c0-4.952-1.152-9.683-3.242-13.918h59.626c4.826,2.972,7.771,8.169,7.771,13.918
				C398.618,454.191,391.277,461.532,382.253,461.532z M497,373.331L497,373.331h-19.668c-4.143,0-7.5,3.357-7.5,7.5
				c0,4.143,3.357,7.5,7.5,7.5h19.667v22.464c0,3.009-2.447,5.456-5.456,5.456H230.814v-27.92h211.638c4.143,0,7.5-3.357,7.5-7.5
				s-3.357-7.5-7.5-7.5H230.814V234.355c0-6.307,5.131-11.438,11.438-11.438h243.311c6.307,0,11.438,5.131,11.438,11.438V373.331z"
				/>
			<path d="M135.499,208.488c-10.839-1.433-33.094,0.231-42.432,2.565c-4.019,1.005-6.461,5.077-5.457,9.096
				c0.853,3.407,3.91,5.683,7.271,5.683c0.603,0,1.215-0.073,1.825-0.226c7.689-1.923,28.032-3.409,36.828-2.247
				c4.093,0.541,7.875-2.345,8.418-6.453C142.495,212.8,139.606,209.031,135.499,208.488z"/>
		</g>
	</g>
</g>
<g>
</g>
<g>
</g>
<g>
</g>
<g>
</g>
<g>
</g>
<g>
</g>
<g>
</g>
<g>
</g>
<g>
</g>
<g>
</g>
<g>
</g>
<g>
</g>
<g>
</g>
<g>
</g>
<g>
</g>
</svg>
