<svg version="1.1" id="S1TNt2Y0M" xmlns="http://www.w3.org/2000/svg" xmlns:xlink="http://www.w3.org/1999/xlink" x="0px" y="0px" viewBox="0 0 512 512" style="enable-background:new 0 0 512 512;" xml:space="preserve"><style type="text/css">@-webkit-keyframes rJ06EY2tAz_S1J_hntAM_Animation {
    43.33% {
        -webkit-transform: scale(1, 1);
                transform: scale(1, 1)
    }
    73.33% {
        -webkit-transform: scale(1.2, 1.2);
                transform: scale(1.2, 1.2)
    }
    95% {
        -webkit-transform: scale(1.2, 1.2);
                transform: scale(1.2, 1.2)
    }
    0% {
        -webkit-transform: scale(1, 1);
                transform: scale(1, 1)
    }
    100% {
        -webkit-transform: scale(1.2, 1.2);
                transform: scale(1.2, 1.2)
    }
}
@keyframes rJ06EY2tAz_S1J_hntAM_Animation {
    43.33% {
        -webkit-transform: scale(1, 1);
                transform: scale(1, 1)
    }
    73.33% {
        -webkit-transform: scale(1.2, 1.2);
                transform: scale(1.2, 1.2)
    }
    95% {
        -webkit-transform: scale(1.2, 1.2);
                transform: scale(1.2, 1.2)
    }
    0% {
        -webkit-transform: scale(1, 1);
                transform: scale(1, 1)
    }
    100% {
        -webkit-transform: scale(1.2, 1.2);
                transform: scale(1.2, 1.2)
    }
}
@-webkit-keyframes ryuT4K2F0G_H1Ewi2tAM_Animation {
    26.67% {
        -webkit-transform: scale(0.9, 0.9);
                transform: scale(0.9, 0.9)
    }
    56.67% {
        -webkit-transform: scale(1, 1);
                transform: scale(1, 1)
    }
    0% {
        -webkit-transform: scale(0.9, 0.9);
                transform: scale(0.9, 0.9)
    }
    100% {
        -webkit-transform: scale(1, 1);
                transform: scale(1, 1)
    }
}
@keyframes ryuT4K2F0G_H1Ewi2tAM_Animation {
    26.67% {
        -webkit-transform: scale(0.9, 0.9);
                transform: scale(0.9, 0.9)
    }
    56.67% {
        -webkit-transform: scale(1, 1);
                transform: scale(1, 1)
    }
    0% {
        -webkit-transform: scale(0.9, 0.9);
                transform: scale(0.9, 0.9)
    }
    100% {
        -webkit-transform: scale(1, 1);
                transform: scale(1, 1)
    }
}
@-webkit-keyframes H1i6NKhtAM_Animation {
    6.67% {
        opacity: 0.7
    }
    18.33% {
        opacity: 1
    }
    96.67% {
        opacity: 0.7
    }
    0% {
        opacity: 0.7
    }
    100% {
        opacity: 0.7
    }
}
@keyframes H1i6NKhtAM_Animation {
    6.67% {
        opacity: 0.7
    }
    18.33% {
        opacity: 1
    }
    96.67% {
        opacity: 0.7
    }
    0% {
        opacity: 0.7
    }
    100% {
        opacity: 0.7
    }
}
@-webkit-keyframes SkVpNYhtAG_Hyxn92Y0z_Animation {
    3.33% {
        -webkit-transform: scale(0.8, 0.8);
                transform: scale(0.8, 0.8)
    }
    11.67% {
        -webkit-transform: scale(1, 1);
                transform: scale(1, 1)
    }
    96.67% {
        -webkit-transform: scale(0.8, 0.8);
                transform: scale(0.8, 0.8)
    }
    0% {
        -webkit-transform: scale(0.8, 0.8);
                transform: scale(0.8, 0.8)
    }
    100% {
        -webkit-transform: scale(0.8, 0.8);
                transform: scale(0.8, 0.8)
    }
}
@keyframes SkVpNYhtAG_Hyxn92Y0z_Animation {
    3.33% {
        -webkit-transform: scale(0.8, 0.8);
                transform: scale(0.8, 0.8)
    }
    11.67% {
        -webkit-transform: scale(1, 1);
                transform: scale(1, 1)
    }
    96.67% {
        -webkit-transform: scale(0.8, 0.8);
                transform: scale(0.8, 0.8)
    }
    0% {
        -webkit-transform: scale(0.8, 0.8);
                transform: scale(0.8, 0.8)
    }
    100% {
        -webkit-transform: scale(0.8, 0.8);
                transform: scale(0.8, 0.8)
    }
}
@-webkit-keyframes S1-p4K3KAM_HkeIq2KCG_Animation {
    1.67% {
        -webkit-transform: translate(0px, 0px);
                transform: translate(0px, 0px)
    }
    16.67% {
        -webkit-transform: translate(0px, 0px);
                transform: translate(0px, 0px)
    }
    30% {
        -webkit-transform: translate(0px, 30px);
                transform: translate(0px, 30px)
    }
    50% {
        -webkit-transform: translate(0px, 0px);
                transform: translate(0px, 0px)
    }
    66.67% {
        -webkit-transform: translate(0px, 30px);
                transform: translate(0px, 30px)
    }
    85% {
        -webkit-transform: translate(0px, 0px);
                transform: translate(0px, 0px)
    }
    95% {
        -webkit-transform: translate(0px, 20px);
                transform: translate(0px, 20px)
    }
    0% {
        -webkit-transform: translate(0px, 0px);
                transform: translate(0px, 0px)
    }
    100% {
        -webkit-transform: translate(0px, 20px);
                transform: translate(0px, 20px)
    }
}
@keyframes S1-p4K3KAM_HkeIq2KCG_Animation {
    1.67% {
        -webkit-transform: translate(0px, 0px);
                transform: translate(0px, 0px)
    }
    16.67% {
        -webkit-transform: translate(0px, 0px);
                transform: translate(0px, 0px)
    }
    30% {
        -webkit-transform: translate(0px, 30px);
                transform: translate(0px, 30px)
    }
    50% {
        -webkit-transform: translate(0px, 0px);
                transform: translate(0px, 0px)
    }
    66.67% {
        -webkit-transform: translate(0px, 30px);
                transform: translate(0px, 30px)
    }
    85% {
        -webkit-transform: translate(0px, 0px);
                transform: translate(0px, 0px)
    }
    95% {
        -webkit-transform: translate(0px, 20px);
                transform: translate(0px, 20px)
    }
    0% {
        -webkit-transform: translate(0px, 0px);
                transform: translate(0px, 0px)
    }
    100% {
        -webkit-transform: translate(0px, 20px);
                transform: translate(0px, 20px)
    }
}
#S1TNt2Y0M * {
    -webkit-animation-duration: 2s;
            animation-duration: 2s;
    -webkit-animation-iteration-count: infinite;
            animation-iteration-count: infinite;
    -webkit-animation-play-state: paused;
            animation-play-state: paused;
    -webkit-animation-timing-function: cubic-bezier(0, 0, 1, 1);
            animation-timing-function: cubic-bezier(0, 0, 1, 1)
}
#S1-p4K3KAM_SJo9YhYCz {
    -webkit-transform-origin: 50% 50%;
            transform-origin: 50% 50%;
    transform-box: fill-box;
    -webkit-transform: translate(0px, 0px);
            transform: translate(0px, 0px)
}
#S1-p4K3KAM_HkeIq2KCG {
    -webkit-animation-name: S1-p4K3KAM_HkeIq2KCG_Animation;
            animation-name: S1-p4K3KAM_HkeIq2KCG_Animation;
    -webkit-transform-origin: 50% 50%;
            transform-origin: 50% 50%;
    transform-box: fill-box;
    -webkit-transform: translate(0px, 0px);
            transform: translate(0px, 0px)
}
#SkVpNYhtAG_Hyxn92Y0z {
    -webkit-animation-name: SkVpNYhtAG_Hyxn92Y0z_Animation;
            animation-name: SkVpNYhtAG_Hyxn92Y0z_Animation;
    -webkit-transform-origin: 50% 50%;
            transform-origin: 50% 50%;
    transform-box: fill-box;
    -webkit-transform: scale(0.8, 0.8);
            transform: scale(0.8, 0.8)
}
#H1i6NKhtAM {
    -webkit-animation-name: H1i6NKhtAM_Animation;
            animation-name: H1i6NKhtAM_Animation;
    -webkit-transform-origin: 50% 50%;
            transform-origin: 50% 50%;
    transform-box: fill-box;
    opacity: 0.7
}
#ryuT4K2F0G_H1Ewi2tAM {
    -webkit-animation-name: ryuT4K2F0G_H1Ewi2tAM_Animation;
            animation-name: ryuT4K2F0G_H1Ewi2tAM_Animation;
    -webkit-transform-origin: 50% 50%;
            transform-origin: 50% 50%;
    transform-box: fill-box;
    -webkit-transform: scale(0.9, 0.9);
            transform: scale(0.9, 0.9)
}
#rJ06EY2tAz_S1J_hntAM {
    -webkit-animation-name: rJ06EY2tAz_S1J_hntAM_Animation;
            animation-name: rJ06EY2tAz_S1J_hntAM_Animation;
    -webkit-transform-origin: 50% 50%;
            transform-origin: 50% 50%;
    transform-box: fill-box;
    -webkit-transform: scale(1, 1);
            transform: scale(1, 1)
}
#S1TNt2Y0M:hover * {
    -webkit-animation-play-state: running;
            animation-play-state: running
}</style><style/>
<g id="BJeT4YnFCM">
	<g id="S1-p4K3KAM_HkeIq2KCG" data-animator-group="true" data-animator-type="0"><g id="S1-p4K3KAM">
		<path d="M450.095,231.666L32.283,151.317c-3.19-0.615-6.561,1.001-8.083,3.871c-1.522,2.869-0.968,6.566,1.329,8.863
			l70.157,70.157v157.689c0,5.346,5.686,9.058,10.584,6.895l116.995-51.696l19.56,18.163c2.431,2.257,6.16,2.646,9.007,0.941
			l107.602-64.561c3.57-2.143,4.728-6.773,2.586-10.343c-2.142-3.571-6.773-4.729-10.342-2.586l-102.745,61.647l-95.344-88.534
			l265.602-13.621l-37.46,22.475c-3.57,2.143-4.728,6.772-2.585,10.342c1.413,2.356,3.91,3.661,6.471,3.661
			c1.32,0,2.657-0.347,3.872-1.074l63.359-38.015C458.727,242.08,456.986,232.651,450.095,231.666z M211.239,335.926l-97.207,42.953
			l25.725-109.33L211.239,335.926z M135,247.678c-3.31,0.195-6.185,2.564-6.952,5.801l-17.286,73.468V238.8h0.001l135.783,3.158
			L135,247.678z M106.419,223.619l-52.857-52.858l305.398,58.73L106.419,223.619z" id="S1zp4K2YCf"/>
	</g></g>
</g>
<g id="HkmaNKnKCM">
	<g id="SkVpNYhtAG_Hyxn92Y0z" data-animator-group="true" data-animator-type="2"><g id="SkVpNYhtAG">
		<path d="M474.567,352.969c-7.602-5.181-34.009-18.693-67.297,13.828c-33.288-32.521-59.693-19.009-67.297-13.828
			c-21.971,14.974-28.641,47.785-15.184,74.698c24.419,48.84,77.835,67.113,80.097,67.866c1.538,0.514,3.229,0.514,4.767,0
			c2.261-0.754,55.677-19.027,80.097-67.866C503.208,400.754,496.537,367.943,474.567,352.969z M476.267,420.924
			c-18.844,37.688-58.857,55.425-69.005,59.418c-10.164-3.978-50.083-21.604-68.989-59.418
			c-11.183-22.367-3.418-46.222,10.19-55.497c4.634-3.16,9.714-4.713,15.09-4.713c11.818,0,25.061,7.515,38.112,22.016
			c2.95,3.278,8.256,3.278,11.206,0c18.99-21.098,38.383-27.406,53.203-17.303C479.685,374.702,487.45,398.557,476.267,420.924z" id="BkSTEK3tCG"/>
	</g></g>
</g>
<g id="SyU6VY3FCf">
	<g id="Byw64FnF0f">
		<g id="ryuT4K2F0G_H1Ewi2tAM" data-animator-group="true" data-animator-type="2"><path d="M212.221,7.225c-7.603-5.182-34.009-18.693-67.297,13.828C111.635-11.468,85.229,2.044,77.627,7.225
			C55.656,22.199,48.986,55.01,62.443,81.923c24.419,48.84,77.835,67.113,80.097,67.866c1.538,0.514,3.229,0.514,4.767,0
			c2.261-0.754,55.677-19.027,80.097-67.866C240.861,55.01,234.191,22.199,212.221,7.225z M213.92,75.18
			c-18.844,37.688-58.857,55.425-69.004,59.418c-10.164-3.978-50.083-21.604-68.989-59.418
			c-11.183-22.367-3.418-46.222,10.19-55.497c4.634-3.16,9.715-4.713,15.091-4.713c11.818,0,25.061,7.515,38.112,22.016
			c2.95,3.278,8.256,3.278,11.206,0c18.989-21.098,38.383-27.405,53.203-17.303C217.339,28.958,225.104,52.813,213.92,75.18z" id="ryuT4K2F0G"/></g>
	</g>
</g>
<g id="SyKTEYnFAM">
	<g id="Byc6VYnFAM">
		<path d="M106.364,427.562c-9.117-6.214-23.615-7.446-38.738,5.755c-15.124-13.201-29.621-11.966-38.738-5.755
			c-13.402,9.134-17.547,28.994-9.438,45.213c13.985,27.968,44.5,38.409,45.793,38.84c1.538,0.514,3.229,0.514,4.767,0
			c1.293-0.431,31.808-10.871,45.793-38.84C123.911,456.556,119.765,436.696,106.364,427.562z M102.317,466.033
			c-9.136,18.272-28.058,27.556-34.706,30.351c-6.659-2.775-25.488-11.97-34.678-30.351c-5.294-10.587-1.815-21.747,4.443-26.012
			c1.923-1.311,4.053-1.954,6.338-1.954c5.493,0,11.867,3.726,18.307,10.883c2.95,3.278,8.256,3.278,11.206,0
			c9.12-10.133,18.105-13.389,24.645-8.929C104.133,444.286,107.611,455.445,102.317,466.033z" id="H1i6NKhtAM"/>
	</g>
</g>
<g id="SJnTVthF0G">
	<g id="SJTTNt2t0G">
		<g id="rJ06EY2tAz_S1J_hntAM" data-animator-group="true" data-animator-type="2"><path d="M444.067,81.817c-9.117-6.214-23.614-7.447-38.738,5.755c-15.124-13.201-29.621-11.966-38.738-5.755
			c-13.402,9.134-17.547,28.994-9.438,45.213c13.984,27.969,44.5,38.41,45.792,38.84c1.538,0.514,3.229,0.514,4.767,0
			c1.293-0.431,31.809-10.871,45.793-38.84C461.615,110.811,457.469,90.951,444.067,81.817z M440.021,120.289
			c-9.136,18.272-28.057,27.556-34.706,30.351c-6.659-2.775-25.488-11.97-34.678-30.351c-5.295-10.587-1.816-21.747,4.443-26.012
			c1.923-1.311,4.053-1.954,6.338-1.954c5.493,0,11.867,3.726,18.307,10.883c2.95,3.278,8.256,3.278,11.206,0
			c9.12-10.134,18.104-13.389,24.645-8.929C441.836,98.542,445.315,109.701,440.021,120.289z" id="rJ06EY2tAz"/></g>
	</g>
</g>
<g id="HkyepNthFRf">
</g>
<g id="HyxxpVYhtCG">
</g>
<g id="SyWxT4YnY0z">
</g>
<g id="rkzx6NKhYAG">
</g>
<g id="BkmgpVF3tCG">
</g>
<g id="S1VepEK3KCz">
</g>
<g id="B1SxaVKnKRz">
</g>
<g id="B1Lx6VKnY0f">
</g>
<g id="B1veaEK2tCG">
</g>
<g id="BJugTEF3YAG">
</g>
<g id="SkYg6EYhYAz">
</g>
<g id="rkqeT4K2KRf">
</g>
<g id="SkoeTEYhYCf">
</g>
<g id="rJheTEFnKCz">
</g>
<g id="Sy6g6VFnt0M">
</g>
<script>(function(){var a=document.querySelector('#S1TNt2Y0M'),b=a.querySelectorAll('style'),c=function(d){b.forEach(function(f){var g=f.textContent;g&amp;&amp;(f.textContent=g.replace(/transform-box:[^;\r\n]*/gi,'transform-box: '+d))})};c('initial'),window.requestAnimationFrame(function(){return c('fill-box')})})();</script></svg>