<?xml version="1.0" encoding="iso-8859-1"?>
<!-- Generator: Adobe Illustrator 19.0.0, SVG Export Plug-In . SVG Version: 6.00 Build 0)  -->
<svg version="1.1" id="raton" xmlns="http://www.w3.org/2000/svg" xmlns:xlink="http://www.w3.org/1999/xlink" x="0px" y="0px"
	 viewBox="0 0 512 512" style="enable-background:new 0 0 512 512;" xml:space="preserve">
<g>
	<g>
		<path d="M211.916,87.902c-15.635,0-28.356,12.72-28.356,28.356c0,15.636,12.721,28.357,28.356,28.357
			c15.636,0,28.357-12.721,28.357-28.357C240.273,100.623,227.552,87.902,211.916,87.902z M211.916,129.615
			c-7.365,0-13.357-5.992-13.357-13.357c0-7.365,5.992-13.357,13.357-13.357c7.366,0,13.357,5.992,13.357,13.357
			C225.273,123.623,219.281,129.615,211.916,129.615z"/>
	</g>
</g>
<g>
	<g>
		<path d="M299.108,87.902c-15.636,0-28.357,12.721-28.357,28.356c0,15.636,12.721,28.357,28.357,28.357
			c15.635,0,28.356-12.721,28.356-28.357C327.464,100.622,314.743,87.902,299.108,87.902z M299.108,129.615
			c-7.365,0-13.357-5.992-13.357-13.357c0-7.365,5.992-13.357,13.357-13.357s13.357,5.992,13.357,13.357
			C312.465,123.623,306.473,129.615,299.108,129.615z"/>
	</g>
</g>
<g>
	<g>
		<path d="M476.82,385.541h-36.254c-2.497,0-4.848-1.631-5.717-3.967c-0.734-1.973,0.429-4.287,3.067-8.74l0.075-0.127
			c0.415-0.7,1.261-1.657,2.08-2.582c0.616-0.696,1.223-1.388,1.779-2.081l0.475-0.592c3.09-3.849,6.285-7.829,8.939-12.411
			c9.086-15.684,5.891-33.163-7.768-42.506c-11.66-7.976-23.25-7.695-33.22-5.125c-3.899-28.387-16.968-54.699-37.685-75.355
			c-21.585-21.52-49.285-34.719-79.046-37.892v-16.386c1.849,0.166,3.711,0.249,5.565,0.249c16.54,0,32.079-6.452,43.754-18.169
			c11.675-11.716,18.072-27.278,18.015-43.82c-0.019-5.364-0.741-10.701-2.147-15.863c-1.088-3.996-5.21-6.354-9.207-5.265
			c-3.996,1.088-6.354,5.21-5.265,9.207c1.06,3.895,1.605,7.923,1.62,11.974c0.044,12.526-4.801,24.31-13.64,33.181
			c-8.84,8.871-20.606,13.757-33.13,13.757c-2.15,0-4.314-0.148-6.433-0.44c-3.544-0.49-7.128,0.585-9.833,2.944
			c-2.731,2.381-4.297,5.824-4.297,9.446v18.448c-15.891,0.115-31.48,3.1-46.064,8.659v-27.106c0-3.622-1.566-7.066-4.297-9.446
			c-2.706-2.359-6.293-3.434-9.834-2.944c-2.119,0.292-4.283,0.44-6.433,0.44c-12.523,0-24.289-4.886-33.129-13.757
			c-8.84-8.871-13.684-20.654-13.641-33.181c0.086-24.871,20.361-45.765,45.196-46.577c13.646-0.45,26.77,5.055,36.004,15.095
			c2.349,2.554,5.69,4.018,9.166,4.018c3.476,0,6.817-1.464,9.167-4.018c9.232-10.039,22.343-15.548,36.003-15.094
			c4.209,0.137,8.371,0.848,12.372,2.112c3.95,1.248,8.163-0.942,9.411-4.891c1.248-3.95-0.942-8.163-4.891-9.411
			c-5.306-1.677-10.825-2.62-16.402-2.802c-17.118-0.55-33.602,5.967-45.66,17.982c-12.059-12.015-28.538-18.527-45.66-17.982
			c-15.968,0.522-30.953,7.191-42.194,18.778c-11.237,11.582-17.456,26.76-17.511,42.739c-0.058,16.543,6.341,32.105,18.015,43.821
			c11.675,11.716,27.214,18.168,43.754,18.168c1.853,0,3.716-0.083,5.565-0.249v31.119c-9.142,4.86-17.729,10.806-25.564,17.74
			c-14.259-11.726-32.5-18.776-52.359-18.776c-45.526,0-82.564,37.038-82.564,82.564c0,20.879,7.806,39.959,20.632,54.514
			l-71.06,73.357c-6.573,6.786-8.368,16.407-4.683,25.107s11.844,14.104,21.292,14.104h256.283c35.636,0,69.039-13.98,94.055-39.364
			c25.012-25.38,38.499-58.996,37.978-94.655c-0.004-0.272-0.016-0.543-0.022-0.815c9.929-3.104,16.803-2.38,23.557,2.24
			c8.091,5.534,7.466,15.342,3.258,22.607c-2.084,3.598-4.791,6.97-7.657,10.541l-0.479,0.596c-0.409,0.51-0.86,1.016-1.314,1.529
			c-1.223,1.383-2.609,2.951-3.749,4.875l-0.075,0.126c-3.178,5.366-7.531,12.714-4.22,21.615
			c3.056,8.216,11.003,13.737,19.775,13.737h36.254c11.126,0,20.178,9.052,20.178,20.178c0,4.142,3.358,7.5,7.5,7.5
			c4.142,0,7.5-3.358,7.5-7.5C511.997,401.322,496.216,385.541,476.82,385.541z M362.83,407.616
			c-22.175,22.501-51.784,34.893-83.372,34.893H23.175c-4.993,0-6.988-3.793-7.48-4.955c-0.493-1.163-1.829-5.234,1.645-8.821
			l71.18-73.481c14.059,11.092,31.782,17.737,51.038,17.737c18.688,0,36.316-6.091,50.978-17.613
			c3.257-2.559,3.822-7.274,1.263-10.531c-2.56-3.257-7.275-3.821-10.531-1.263c-11.993,9.425-26.416,14.408-41.71,14.408
			c-37.255,0-67.565-30.309-67.565-67.564s30.31-67.565,67.565-67.565s67.564,30.31,67.564,67.565c0,3.87-0.329,7.748-0.978,11.527
			c-0.701,4.082,2.039,7.96,6.122,8.661c4.084,0.705,7.96-2.039,8.661-6.122c0.793-4.615,1.195-9.347,1.195-14.066
			c0-20.266-7.353-38.839-19.514-53.223c21.211-18.454,48.527-28.79,76.886-28.79c0.455,0,0.915,0.002,1.371,0.008
			c30.523,0.358,59.338,12.524,81.134,34.256c21.798,21.732,34.048,50.51,34.494,81.03C396.955,355.32,385,385.119,362.83,407.616z"
			/>
	</g>
</g>
<g>
	<g>
		<circle cx="98.327" cy="398.649" r="15.944"/>
	</g>
</g>
<g>
</g>
<g>
</g>
<g>
</g>
<g>
</g>
<g>
</g>
<g>
</g>
<g>
</g>
<g>
</g>
<g>
</g>
<g>
</g>
<g>
</g>
<g>
</g>
<g>
</g>
<g>
</g>
<g>
</g>
</svg>
