<?xml version="1.0" encoding="iso-8859-1"?>
<!-- Generator: Adobe Illustrator 19.0.0, SVG Export Plug-In . SVG Version: 6.00 Build 0)  -->
<svg version="1.1" id="Layer_1" xmlns="http://www.w3.org/2000/svg" xmlns:xlink="http://www.w3.org/1999/xlink" x="0px" y="0px"
	 viewBox="0 0 512 512" style="enable-background:new 0 0 512 512;" xml:space="preserve">
<g>
	<g>
		<g>
			<path d="M122.025,314.958H53.862c-4.435,0-8.028,3.594-8.028,8.028s3.593,8.028,8.028,8.028h68.163
				c4.435,0,8.028-3.594,8.028-8.028C130.052,318.551,126.459,314.958,122.025,314.958z"/>
			<path d="M168.613,277.414H53.862c-4.435,0-8.028,3.594-8.028,8.028c0,4.434,3.593,8.028,8.028,8.028h114.751
				c4.435,0,8.028-3.594,8.028-8.028C176.641,281.008,173.048,277.414,168.613,277.414z"/>
			<path d="M218.563,197.568l-17.931,5.97c-9.296,3.096-19.576,2.198-28.198-2.467c-6.923-3.745-14.584-5.809-22.334-6.15
				c0.001-0.1,0.008-0.197,0.008-0.297c0-3.668-0.385-7.248-1.11-10.704c5.477,0.18,10.904,1.611,15.796,4.258
				c7.606,4.115,16.099,6.209,24.623,6.209c5.493,0,10.998-0.87,16.286-2.63l17.931-5.97c4.207-1.401,6.482-5.946,5.081-10.153
				s-5.944-6.482-10.153-5.081l-17.931,5.969c-9.301,3.098-19.577,2.196-28.198-2.467c-9.086-4.916-19.441-6.933-29.6-5.955
				c-9.091-15.318-25.793-25.614-44.861-25.614c-28.748,0-52.137,23.389-52.137,52.136s23.389,52.136,52.137,52.136
				c23.058,0,42.656-15.053,49.515-35.843c5.988-0.056,11.966,1.385,17.307,4.274c7.605,4.116,16.1,6.21,24.624,6.21
				c5.492,0,10.998-0.87,16.286-2.63l17.931-5.969c4.207-1.401,6.482-5.946,5.081-10.153
				C227.315,198.442,222.772,196.168,218.563,197.568z M133.984,196.744c-0.824,0.229-1.645,0.477-2.46,0.748l-17.931,5.969
				c-4.207,1.401-6.482,5.946-5.081,10.153s5.946,6.482,10.153,5.081l8.429-2.807c-6.57,8.973-17.174,14.816-29.123,14.816
				c-19.895,0-36.082-16.186-36.082-36.08c0-19.894,16.186-36.08,36.082-36.08c11.442,0,21.65,5.36,28.264,13.694l-12.642,4.209
				c-4.207,1.401-6.482,5.946-5.081,10.153s5.946,6.48,10.153,5.081l14.533-4.838c0.553,2.508,0.854,5.11,0.854,7.782
				C134.051,195.336,134.026,196.042,133.984,196.744z"/>
			<path d="M350.938,154.522H318.93c-6.886,0-12.487,5.601-12.487,12.487v55.232c0,6.885,5.601,12.487,12.487,12.487h32.008
				c6.886,0,12.487-5.601,12.487-12.487V167.01C363.425,160.124,357.823,154.522,350.938,154.522z M347.369,218.673h-24.87v-48.095
				h24.87V218.673z"/>
			<path d="M490.434,98.278H21.565C9.674,98.278,0,107.952,0,119.843v272.314c0,11.891,9.674,21.565,21.565,21.565h468.869
				c11.891,0,21.566-9.674,21.566-21.565V119.843C512,107.952,502.326,98.278,490.434,98.278z M21.565,397.666
				c-3.038,0-5.509-2.471-5.509-5.509V119.843c0-3.038,2.473-5.509,5.509-5.509h468.869c3.038,0,5.51,2.472,5.51,5.509v202.97
				l-70.821-122.665c-4.899-8.486-13.673-13.552-23.472-13.552c0,0,0,0-0.001,0c-5.622,0-10.903,1.675-15.313,4.7v-44.646
				c0-8.295-6.749-15.044-15.044-15.044h-72.722c-8.295,0-15.044,6.749-15.044,15.044v95.946c0,8.295,6.749,15.044,15.044,15.044
				h46.413l-27.171,47.06l-17.981-31.144c-4.899-8.486-13.673-13.552-23.473-13.552c-9.798,0-18.573,5.066-23.472,13.552
				l-71.655,124.109H21.565z M363.521,257.64h7.773v0.001c8.295,0,15.044-6.749,15.044-15.044v-24.472l5.744-9.948
				c1.997-3.459,5.575-5.525,9.569-5.525c3.994,0,7.57,2.066,9.567,5.524l31.925,55.296c-12.901,6.127-27.091,9.348-41.494,9.348
				c-14.403,0-28.593-3.222-41.494-9.348L363.521,257.64z M299.585,241.585v-93.923h70.698v93.923H299.585z M313.507,329.353
				c-11.736,4.906-24.194,7.391-37.148,7.391c-12.954,0-25.412-2.487-37.147-7.391l27.578-47.768
				c1.997-3.459,5.573-5.524,9.568-5.524c3.995,0,7.571,2.065,9.569,5.524L313.507,329.353z M199.772,397.666l31.364-54.325
				c14.181,6.199,29.663,9.458,45.223,9.458c15.56,0,31.042-3.259,45.224-9.458l31.364,54.325H199.772z M495.945,392.157h-0.001
				c0,3.038-2.473,5.509-5.51,5.509H371.488l-44.404-76.909l25.021-43.338c15.355,7.51,32.324,11.456,49.546,11.456
				s34.191-3.947,49.546-11.456l44.748,77.505V392.157z"/>
		</g>
	</g>
</g>
<g>
</g>
<g>
</g>
<g>
</g>
<g>
</g>
<g>
</g>
<g>
</g>
<g>
</g>
<g>
</g>
<g>
</g>
<g>
</g>
<g>
</g>
<g>
</g>
<g>
</g>
<g>
</g>
<g>
</g>
</svg>
