<svg version="1.1" id="SJ-dRN2CM" xmlns="http://www.w3.org/2000/svg" xmlns:xlink="http://www.w3.org/1999/xlink" x="0px" y="0px" width="62" height="25" viewBox="0 18.5 62 25" style="enable-background:new 0 0 62.581 62.581;" xml:space="preserve"><style type="text/css">#Bkdbd0NnCz_S1z6CNhRG {
    -webkit-transform-origin: 50% 50%;
            transform-origin: 50% 50%;
    transform-box: fill-box;
    -webkit-transform: rotate(undefineddeg);
            transform: rotate(undefineddeg)
}
#SJ-dRN2CM:hover * {
    -webkit-animation-play-state: running;
            animation-play-state: running
}</style><style/>
<g id="H1lWdAV30M">
	<g id="BJbbO0Nn0G">
		<path d="M5.723,25.946c-0.065-0.003-0.122,0.003-0.18,0.009c-0.033-0.002-0.061-0.009-0.094-0.009c-1.415,0-1.415,1.152,0,1.152
			c0.059,0,0.11-0.009,0.164-0.017c0.038,0.005,0.071,0.015,0.111,0.017c5.34,0.254,10.694,1.306,15.794,3.104
			c1.337,0.472,1.908-1.648,0.583-2.115C16.817,26.225,11.255,26.208,5.723,25.946z" id="ByMbORN2Rf"/>
		<path d="M21.809,32.983c1.416,0.017,1.414-2.178,0-2.193c-7.042-0.078-13.917,1.27-20.766,2.781
			c-0.088,0.02-0.168,0.047-0.241,0.08c-1.15,0.251-1.064,1.125,0.258,1.125c0.201,0,0.371-0.048,0.516-0.126
			c0.018-0.003,0.033-0.002,0.05-0.006C8.287,33.176,14.96,32.908,21.809,32.983z" id="ByQ-_A4nRf"/>
		<path d="M21.701,33.479c-3.862,0.805-7.486,2.279-11.047,3.949c-1.28,0.601-0.166,1.449,1.107,0.852
			c3.395-1.592,6.843-1.919,10.523-2.686C23.668,35.307,23.082,33.192,21.701,33.479z" id="Sk4b_CEhRz"/>
		<path d="M57.039,25.955c-0.059-0.006-0.117-0.012-0.181-0.009c-5.532,0.262-11.095,0.28-16.379,2.142
			c-1.324,0.466-0.754,2.586,0.584,2.115c5.101-1.798,10.455-2.85,15.795-3.104c0.04-0.002,0.073-0.012,0.11-0.017
			c0.054,0.008,0.105,0.017,0.163,0.017c1.415,0,1.415-1.152,0-1.152C57.098,25.946,57.071,25.952,57.039,25.955z" id="HJBZuA4h0z"/>
		<path d="M61.777,33.651c-0.073-0.033-0.151-0.061-0.24-0.08c-6.849-1.512-13.724-2.859-20.767-2.781
			c-1.413,0.016-1.415,2.21,0,2.193c6.851-0.075,13.523,0.192,20.183,1.662c0.019,0.004,0.033,0.003,0.05,0.006
			c0.145,0.077,0.314,0.126,0.516,0.126C62.842,34.776,62.928,33.9,61.777,33.651z" id="S1UWO0EhAz"/>
		<path d="M51.927,37.43c-3.561-1.671-7.184-3.145-11.046-3.949c-1.381-0.287-1.969,1.826-0.584,2.116
			c3.681,0.768,7.129,1.094,10.523,2.686C52.093,38.879,53.208,38.03,51.927,37.43z" id="ryPbORV2Rz"/>
		<path d="M33.499,24.993c-1.198-1.197-3.139-1.197-4.337,0l-2.384,0.543c-1.198,1.197-1.198,3.139,0,4.337l2.384,2.383
			c1.198,1.197,3.139,1.197,4.337,0l2.384-2.383c1.197-1.198,1.197-3.141,0-4.337L33.499,24.993z" id="Bkdbd0NnCz"/>
	</g>
</g>
<g id="HkF-u0NhRf">
</g>
<g id="ry5-uAE2Af">
</g>
<g id="Hyi-uRV2Af">
</g>
<g id="ry3bOAEnCM">
</g>
<g id="r1TWu0VhRf">
</g>
<g id="BkRbORE3Cf">
</g>
<g id="BkylZ_R43Cf">
</g>
<g id="SkllZdA4n0f">
</g>
<g id="S1bx-_C4h0M">
</g>
<g id="BJzxbOANhRG">
</g>
<g id="By7ebO0E2AM">
</g>
<g id="SkVg-u0N3Af">
</g>
<g id="Byre-_0Vh0M">
</g>
<g id="B1LeZd043RM">
</g>
<g id="B1wxZu0VnAM">
</g>
<script>(function(){var a=document.querySelector('#SJ-dRN2CM'),b=a.querySelectorAll('style'),c=function(d){b.forEach(function(f){var g=f.textContent;g&amp;&amp;(f.textContent=g.replace(/transform-box:[^;\r\n]*/gi,'transform-box: '+d))})};c('initial'),window.requestAnimationFrame(function(){return c('fill-box')})})();</script></svg>